<svg width="61" height="61" viewBox="0 0 61 61" fill="none" xmlns="http://www.w3.org/2000/svg">
<path d="M59.0451 0.96875H1.9531C1.69203 0.96875 1.44166 1.07246 1.25706 1.25706C1.07246 1.44166 0.96875 1.69203 0.96875 1.9531V33.4521C0.96875 33.7132 1.07246 33.9636 1.25706 34.1482C1.44166 34.3328 1.69203 34.4365 1.9531 34.4365H14.7496V37.3895C14.7497 37.5022 14.769 37.6141 14.8067 37.7203L19.6713 51.3406V59.0451C19.6713 59.3062 19.775 59.5565 19.9596 59.7411C20.1442 59.9258 20.3946 60.0295 20.6557 60.0295H40.3426C40.6036 60.0295 40.854 59.9258 41.0386 59.7411C41.2232 59.5565 41.3269 59.3062 41.3269 59.0451V51.3406L46.1915 37.7203C46.2292 37.6141 46.2486 37.5022 46.2486 37.3895V34.4365H59.0451C59.3062 34.4365 59.5566 34.3328 59.7412 34.1482C59.9258 33.9636 60.0295 33.7132 60.0295 33.4521V1.9531C60.0295 1.69203 59.9258 1.44166 59.7412 1.25706C59.5566 1.07246 59.3062 0.96875 59.0451 0.96875ZM21.64 58.0608V52.1547H39.3582V58.0608H21.64ZM44.2799 37.2192L39.6535 50.186H21.3496L16.7183 37.2192V34.4365H36.4052V36.5243C34.1619 37.0726 32.4678 39.4596 32.4678 42.3112H34.4365C34.4365 40.1398 35.7614 38.3739 37.3895 38.3739C37.6506 38.3739 37.901 38.2702 38.0856 38.0856C38.2702 37.901 38.3739 37.6506 38.3739 37.3895V23.6087C38.3739 22.8255 38.685 22.0744 39.2388 21.5206C39.7926 20.9668 40.5437 20.6557 41.3269 20.6557C42.1101 20.6557 42.8612 20.9668 43.415 21.5206C43.9688 22.0744 44.2799 22.8255 44.2799 23.6087V37.2192ZM39.2194 19.1791C38.3802 19.5768 37.6706 20.2037 37.1727 20.9875C36.6747 21.7713 36.4086 22.6801 36.4052 23.6087V24.2918C34.8941 25.642 32.9654 26.4327 30.9414 26.5317C28.9175 26.6308 26.9208 26.0322 25.2851 24.8359C23.6495 23.6397 22.4739 21.9184 21.9549 19.9596C21.4359 18.0008 21.6048 15.9231 22.4336 14.074C23.2623 12.2248 24.7006 10.716 26.5081 9.79984C28.3156 8.88368 30.3827 8.6156 32.3641 9.04041C34.3455 9.46522 36.121 10.5572 37.394 12.1338C38.6671 13.7104 39.3604 15.6762 39.3582 17.7026C39.3557 18.1979 39.3092 18.692 39.2194 19.1791ZM58.0608 32.4678H46.2486V23.6087C46.2471 22.3038 45.728 21.0529 44.8054 20.1302C43.8827 19.2076 42.6317 18.6885 41.3269 18.687C41.3082 18.687 41.2915 18.687 41.2728 18.6929C41.3013 18.369 41.3269 18.0432 41.3269 17.7026C41.3258 15.2958 40.5224 12.9579 39.0438 11.0588C37.5651 9.15969 35.4956 7.80763 33.1625 7.21642C30.8294 6.62521 28.3658 6.82858 26.1612 7.79437C23.9566 8.76017 22.1368 10.4333 20.9896 12.5492C19.8424 14.665 19.4333 17.103 19.8268 19.4774C20.2204 21.8519 21.3942 24.0274 23.1627 25.66C24.9312 27.2927 27.1935 28.2892 29.5918 28.4921C31.9901 28.6949 34.3876 28.0926 36.4052 26.7802V32.4678H2.93744V2.93744H58.0608V32.4678Z" fill="#FFC800"/>
</svg>
