<svg width="60" height="60" viewBox="0 0 60 60" fill="none" xmlns="http://www.w3.org/2000/svg">
<g clip-path="url(#clip0)">
<path d="M35.9494 52.5476L35.8784 52.4772C36.2592 52.0931 36.8796 52.0899 37.264 52.4703C37.6487 52.8509 37.6517 53.4709 37.2708 53.8552C33.5767 57.5834 30.7219 59.801 30.5999 59.8953C30.4234 60.0318 30.2117 60.1001 30.0003 60.1001C29.7888 60.1001 29.5771 60.0318 29.4006 59.8953C29.1672 59.7148 23.6798 55.4446 18.1037 48.79C14.8189 44.8697 12.1974 40.9391 10.3133 37.1072L10.403 37.0631L10.3133 37.1072C7.93715 32.2744 6.73008 27.5792 6.73008 23.1526C6.73008 16.103 9.87829 9.51267 15.3672 5.07176M35.9494 52.5476L15.3672 5.07176C15.3672 5.07176 15.3672 5.07176 15.3672 5.07176M35.9494 52.5476L35.8784 52.4773C33.253 55.1267 31.0242 57.0237 30.0005 57.8638C28.426 56.5709 23.9975 52.7731 19.6065 47.5327C16.4203 43.7302 13.8858 39.932 12.0723 36.2436C9.82635 31.6756 8.68988 27.2714 8.68988 23.1526C8.68988 16.6966 11.573 10.6614 16.6004 6.59388L16.6005 6.59387C17.0209 6.25351 17.086 5.63692 16.7453 5.21661C16.4047 4.79639 15.7877 4.73153 15.3672 5.07176M35.9494 52.5476L15.3672 5.07176" fill="#FFC800" stroke="#FFC800" stroke-width="0.2"/>
<path d="M19.3957 4.67777L19.3957 4.67778C18.9265 4.94709 18.3276 4.78575 18.0579 4.31691L19.3957 4.67777ZM19.3957 4.67777C22.6065 2.83333 26.2735 1.8584 30.0002 1.8584C41.7509 1.8584 51.3108 11.4111 51.3108 23.1527C51.3108 33.4457 44.2678 43.3642 38.3413 49.8836C37.9774 50.2839 38.0072 50.9032 38.4079 51.2668L38.4079 51.2668M19.3957 4.67777L38.4079 51.2668M38.4079 51.2668C38.5956 51.4371 38.8315 51.5212 39.0663 51.5212C39.3326 51.5212 39.5984 51.4131 39.7919 51.2004L39.7179 51.1331M38.4079 51.2668L39.7179 51.1331M39.7179 51.1331L39.7919 51.2004C45.9314 44.4466 53.2705 34.0876 53.2705 23.1529C53.2705 10.3309 42.8315 -0.1 30.0002 -0.1C25.9314 -0.1 21.9268 0.964958 18.419 2.97997M39.7179 51.1331L18.419 2.97997M18.419 2.97997C17.9498 3.24935 17.7881 3.84804 18.0579 4.31689L18.419 2.97997Z" fill="#FFC800" stroke="#FFC800" stroke-width="0.2"/>
<path d="M30.0003 7.05347C21.1164 7.05347 13.8887 14.2755 13.8887 23.1528C13.8887 32.0299 21.1162 39.252 30.0003 39.252C30.4862 39.252 30.8802 38.8584 30.8802 38.3729C30.8802 37.8874 30.4862 37.4937 30.0003 37.4937C22.0866 37.4937 15.6484 31.0605 15.6484 23.1528C15.6484 15.2451 22.0865 8.81186 30.0003 8.81186C37.914 8.81186 44.3521 15.2451 44.3521 23.1528C44.3521 26.4474 43.2651 29.545 41.2086 32.1107C39.2114 34.6025 36.4101 36.3773 33.3206 37.1081C32.8477 37.22 32.5552 37.6937 32.6671 38.1663C32.7791 38.6387 33.2533 38.9306 33.7261 38.8192C37.1955 37.9983 40.3407 36.0063 42.582 33.2099C44.8584 30.37 46.1119 26.7984 46.1119 23.1528C46.1118 14.2755 38.8842 7.05347 30.0003 7.05347Z" fill="#6A3DF7"/>
<path d="M41.2661 21.9678L30.6016 11.9948C30.2633 11.6785 29.7375 11.6785 29.3991 11.9948L18.7347 21.9678C18.4711 22.2144 18.3849 22.5971 18.5176 22.9327C18.6502 23.2685 18.9747 23.489 19.3359 23.489H21.5834V30.7928C21.5834 31.2783 21.9774 31.672 22.4633 31.672H27.909C28.3949 31.672 28.7888 31.2783 28.7888 30.7928V26.6797H31.2118V30.7928C31.2118 31.2783 31.6057 31.672 32.0916 31.672H37.5374C38.0232 31.672 38.4172 31.2783 38.4172 30.7928V23.489H40.6647C41.0259 23.489 41.3504 23.2685 41.4831 22.9327C41.616 22.5971 41.5298 22.2145 41.2661 21.9678ZM37.5375 21.7306C37.0516 21.7306 36.6576 22.1242 36.6576 22.6097V29.9136H32.9716V25.8004C32.9716 25.3149 32.5776 24.9213 32.0918 24.9213H27.909C27.4231 24.9213 27.0291 25.3149 27.0291 25.8004V29.9136H23.3431V22.6097C23.3431 22.1242 22.9491 21.7306 22.4633 21.7306H21.5636L30.0003 13.8408L38.4371 21.7306H37.5375Z" fill="#FFC800"/>
</g>
<defs>
<clipPath id="clip0">
<rect width="60" height="60" fill="white"/>
</clipPath>
</defs>
</svg>
