<svg width="30" height="30" viewBox="0 0 30 30" fill="none" xmlns="http://www.w3.org/2000/svg">
<circle cx="15" cy="15" r="15" fill="white"/>
<path d="M14.8074 19.9579H15.883C15.883 19.9579 16.2081 19.9228 16.3735 19.7486C16.5265 19.5887 16.5209 19.2885 16.5209 19.2885C16.5209 19.2885 16.4995 17.8831 17.1701 17.676C17.8305 17.4723 18.6788 19.0344 19.5777 19.6358C20.2573 20.0904 20.7737 19.9907 20.7737 19.9907L23.178 19.9579C23.178 19.9579 24.4359 19.8823 23.8396 18.9194C23.7912 18.8405 23.4919 18.2073 22.0518 16.9059C20.5442 15.5431 20.7467 15.7644 22.5626 13.4081C23.6685 11.973 24.1107 11.0967 23.9723 10.722C23.8407 10.3649 23.0273 10.4591 23.0273 10.4591L20.3226 10.4744C20.3226 10.4744 20.1223 10.4481 19.9727 10.5347C19.8275 10.6201 19.7341 10.8173 19.7341 10.8173C19.7341 10.8173 19.3055 11.9281 18.7339 12.8724C17.529 14.8651 17.0463 14.9702 16.8494 14.8464C16.3915 14.5583 16.5063 13.6874 16.5063 13.0696C16.5063 11.1383 16.8067 10.3331 15.9201 10.125C15.6253 10.056 15.4093 10.01 14.6566 10.0023C13.6913 9.99242 12.8734 10.0056 12.411 10.2258C12.1027 10.3726 11.8653 10.7001 12.0104 10.7187C12.1893 10.7417 12.5944 10.825 12.8093 11.1098C13.0871 11.4768 13.077 12.3028 13.077 12.3028C13.077 12.3028 13.2368 14.5759 12.7046 14.8585C12.339 15.0524 11.8383 14.6569 10.7639 12.8483C10.2137 11.9226 9.79741 10.8984 9.79741 10.8984C9.79741 10.8984 9.71752 10.7078 9.57464 10.6059C9.40138 10.4821 9.15836 10.4427 9.15836 10.4427L6.58642 10.458C6.58642 10.458 6.20052 10.469 6.05876 10.6322C5.93275 10.7779 6.04863 11.078 6.04863 11.078C6.04863 11.078 8.06253 15.6647 10.3419 17.9773C12.4335 20.097 14.8074 19.9579 14.8074 19.9579Z" fill="#1E88E5"/>
</svg>
