<svg width="34" height="35" viewBox="0 0 34 35" fill="none" xmlns="http://www.w3.org/2000/svg">
<circle cx="17" cy="17.0779" r="16.5" fill="white" stroke="#EDEDED"/>
<path d="M22.9785 13.1372C22.288 12.3806 21.3301 11.964 20.2812 11.964C18.8061 11.964 17.8722 12.8147 17.3485 13.5284C17.2126 13.7136 17.097 13.8993 17 14.074C16.903 13.8993 16.7874 13.7136 16.6515 13.5284C16.1278 12.8147 15.1939 11.964 13.7188 11.964C12.6699 11.964 11.712 12.3807 11.0214 13.1372C10.3628 13.8589 10 14.8255 10 15.8589C10 16.9838 10.4548 18.03 11.4313 19.1514C12.304 20.1537 13.5596 21.1868 15.0135 22.3832C15.5552 22.829 16.1155 23.29 16.7119 23.7939L16.7298 23.809C16.8072 23.8744 16.9036 23.9071 17 23.9071C17.0964 23.9071 17.1928 23.8744 17.2702 23.809L17.2881 23.7939C17.8845 23.29 18.4448 22.829 18.9866 22.3831C20.4404 21.1869 21.696 20.1537 22.5687 19.1514C23.5452 18.03 24 16.9838 24 15.8589C24 14.8255 23.6372 13.8589 22.9785 13.1372ZM18.4545 21.7803C17.9875 22.1645 17.5068 22.56 17 22.9855C16.4932 22.5601 16.0125 22.1646 15.5454 21.7802C12.7001 19.4389 10.8203 17.8922 10.8203 15.8589C10.8203 15.0185 11.1103 14.2379 11.6369 13.6609C12.1695 13.0775 12.9088 12.7561 13.7188 12.7561C14.8434 12.7561 15.5704 13.4251 15.9822 13.9863C16.3515 14.4897 16.5443 14.9971 16.61 15.1919C16.665 15.3549 16.8224 15.4653 17 15.4653C17.1776 15.4653 17.335 15.3549 17.39 15.1919C17.4557 14.9971 17.6485 14.4897 18.0178 13.9863C18.4296 13.4251 19.1566 12.7561 20.2812 12.7561C21.0912 12.7561 21.8305 13.0775 22.3631 13.6609C22.8897 14.2379 23.1797 15.0185 23.1797 15.8589C23.1797 17.8922 21.2999 19.4389 18.4545 21.7803Z" fill="#7E7E7E"/>
</svg>
