<svg width="32" height="31" viewBox="0 0 32 31" fill="none" xmlns="http://www.w3.org/2000/svg">
<path d="M11.9095 29.6363C12.6627 29.6363 13.2732 29.0258 13.2732 28.2727C13.2732 27.5196 12.6627 26.9091 11.9095 26.9091C11.1564 26.9091 10.5459 27.5196 10.5459 28.2727C10.5459 29.0258 11.1564 29.6363 11.9095 29.6363Z" stroke="white" stroke-width="2" stroke-linecap="round" stroke-linejoin="round"/>
<path d="M26.9095 29.6363C27.6627 29.6363 28.2732 29.0258 28.2732 28.2727C28.2732 27.5196 27.6627 26.9091 26.9095 26.9091C26.1564 26.9091 25.5459 27.5196 25.5459 28.2727C25.5459 29.0258 26.1564 29.6363 26.9095 29.6363Z" stroke="white" stroke-width="2" stroke-linecap="round" stroke-linejoin="round"/>
<path d="M1 1H6.45455L10.1091 19.2591C10.2338 19.8869 10.5753 20.4509 11.0739 20.8522C11.5725 21.2536 12.1964 21.4668 12.8364 21.4545H26.0909C26.7309 21.4668 27.3548 21.2536 27.8533 20.8522C28.3519 20.4509 28.6935 19.8869 28.8182 19.2591L31 7.81818H7.81818" stroke="white" stroke-width="2" stroke-linecap="round" stroke-linejoin="round"/>
</svg>
