<svg width="28" height="28" viewBox="0 0 28 28" fill="none" xmlns="http://www.w3.org/2000/svg">
<path d="M14.5297 6.50212L14.6102 6.55913L14.5297 6.50213C14.3521 6.75285 14.1962 7.00394 14.0606 7.24506C13.925 7.00395 13.7692 6.75285 13.5916 6.50212C12.7545 5.32078 11.2524 3.9 8.87597 3.9C7.19011 3.9 5.64912 4.59406 4.53892 5.85372L4.53892 5.85373C3.48084 7.05439 2.9 8.66011 2.9 10.3735C2.9 12.2441 3.6316 13.9781 5.18506 15.8256C6.56946 17.4721 8.5586 19.1671 10.8513 21.1208L10.8569 21.1256C11.713 21.8551 12.5977 22.6091 13.5396 23.4332L13.5679 23.4579L13.5679 23.4579C13.7089 23.5814 13.8849 23.6431 14.0606 23.6431C14.2364 23.6431 14.4123 23.5814 14.5534 23.4579L14.5534 23.4579L14.5817 23.4332C15.5207 22.6116 16.4029 21.8597 17.2567 21.1321L17.2645 21.1255L17.2698 21.121C19.5625 19.1673 21.5518 17.4722 22.9362 15.8256C24.4897 13.978 25.2213 12.2441 25.2213 10.3735C25.2213 8.66011 24.6404 7.05439 23.5823 5.85368C22.4722 4.59402 20.9312 3.9 19.2453 3.9C16.8689 3.9 15.3667 5.32078 14.5297 6.50212ZM12.3708 7.3671L12.3708 7.36711C12.9463 8.17937 13.2471 8.99924 13.3494 9.313C13.4497 9.62096 13.7368 9.82937 14.0606 9.82937C14.3845 9.82937 14.6716 9.62096 14.7719 9.313C14.8742 8.99924 15.1749 8.17937 15.7505 7.36706C16.3924 6.4611 17.5148 5.39617 19.2453 5.39617C20.4966 5.39617 21.6374 5.90982 22.4598 6.84295C23.2743 7.76701 23.7251 9.02014 23.7251 10.3735C23.7251 12.0038 22.9986 13.4459 21.702 14.9642C20.4037 16.4844 18.5442 18.0693 16.294 19.9868C15.5763 20.5984 14.8378 21.2277 14.0606 21.9026C13.2835 21.2278 12.545 20.5984 11.8271 19.9867C9.57699 18.0693 7.71753 16.4844 6.41929 14.9642C5.12268 13.4459 4.39617 12.0038 4.39617 10.3735C4.39617 9.02015 4.84703 7.76702 5.66139 6.84295C6.48385 5.90982 7.6247 5.39617 8.87597 5.39617C10.6065 5.39617 11.7289 6.4611 12.3708 7.3671Z" fill="#172029" stroke="black" stroke-width="0.2"/>
</svg>
