<svg width="28" height="28" viewBox="0 0 28 28" fill="none" xmlns="http://www.w3.org/2000/svg">
<path d="M19.5797 16.9436C18.1803 16.9436 16.9275 17.582 16.0962 18.5827L10.6887 15.5126C10.8569 15.0394 10.9493 14.5306 10.9493 14.0003C10.9493 13.4702 10.8569 12.9614 10.6887 12.4882L16.0958 9.41729C16.9269 10.4183 18.18 11.0569 19.5795 11.0569C22.0759 11.0569 24.1069 9.02521 24.1069 6.52778C24.1071 4.03109 22.0761 2 19.5797 2C17.0831 2 15.0519 4.03109 15.0519 6.52767C15.0519 7.05792 15.1442 7.56683 15.3124 8.04014L9.9051 11.1111C9.07393 10.1106 7.8212 9.47243 6.42207 9.47243C3.92507 9.47243 1.89355 11.5035 1.89355 14.0002C1.89355 16.4968 3.92507 18.5279 6.42207 18.5279C7.8212 18.5279 9.07382 17.8897 9.905 16.8893L15.3124 19.9595C15.1442 20.4329 15.0518 20.9419 15.0518 21.4722C15.0518 23.9688 17.0829 25.9999 19.5796 25.9999C22.076 25.9999 24.107 23.9687 24.107 21.4722C24.1071 18.9752 22.0761 16.9436 19.5797 16.9436ZM19.5797 3.5844C21.2025 3.5844 22.5227 4.90473 22.5227 6.52767C22.5227 8.15147 21.2025 9.47243 19.5797 9.47243C17.9567 9.47243 16.6363 8.15147 16.6363 6.52767C16.6363 4.90473 17.9567 3.5844 19.5797 3.5844ZM6.42218 16.9436C4.79881 16.9436 3.47806 15.6232 3.47806 14.0003C3.47806 12.3773 4.79881 11.0569 6.42218 11.0569C8.04492 11.0569 9.36504 12.3773 9.36504 14.0003C9.36504 15.6232 8.04481 16.9436 6.42218 16.9436ZM19.5797 24.4156C17.9567 24.4156 16.6363 23.0952 16.6363 21.4723C16.6363 19.8488 17.9567 18.528 19.5797 18.528C21.2025 18.528 22.5227 19.8488 22.5227 21.4723C22.5227 23.0952 21.2025 24.4156 19.5797 24.4156Z" fill="#172029"/>
</svg>
