<svg width="61" height="61" viewBox="0 0 61 61" fill="none" xmlns="http://www.w3.org/2000/svg">
<g clip-path="url(#clip0)">
<mask id="path-1-outside-1" maskUnits="userSpaceOnUse" x="-1" y="-1" width="63" height="63" fill="black">
<rect fill="white" x="-1" y="-1" width="63" height="63"/>
<path d="M58.6118 34.9532C58.6819 34.5074 59.1432 33.9338 59.5894 33.3792C60.2505 32.557 61 31.625 61 30.5C61 29.375 60.2505 28.443 59.5893 27.6208C59.1431 27.0661 58.6818 26.4925 58.6117 26.0468C58.5372 25.5728 58.8053 24.8681 59.0644 24.1866C59.4339 23.2153 59.8527 22.1142 59.5146 21.0728C59.17 20.0116 58.1729 19.3604 57.2931 18.7859C56.6925 18.3936 56.0714 17.9881 55.8622 17.5782C55.6477 17.1582 55.6836 16.4097 55.7183 15.6859C55.7683 14.6436 55.825 13.4623 55.1763 12.5709C54.5245 11.6752 53.3798 11.3649 52.3698 11.0913C51.6733 10.9026 50.9531 10.7073 50.6234 10.3776C50.2937 10.0478 50.0985 9.32764 49.9098 8.63102C49.6361 7.62107 49.3259 6.47637 48.4302 5.82455C47.5388 5.17571 46.3575 5.2323 45.3151 5.28234C44.5915 5.31701 43.8429 5.35287 43.4228 5.13842C43.013 4.92921 42.6073 4.30801 42.2151 3.70742C41.6405 2.82756 40.9893 1.83036 39.9281 1.4858C38.8867 1.14756 37.7854 1.56634 36.8139 1.93568C36.1323 2.19481 35.4273 2.46276 34.9534 2.38829C34.5075 2.31824 33.934 1.85693 33.3793 1.41086C32.557 0.749514 31.625 0 30.5 0C29.375 0 28.443 0.749514 27.6208 1.41062C27.0661 1.85681 26.4925 2.31812 26.0466 2.38817C25.5731 2.46264 24.868 2.19469 24.1865 1.93544C23.2153 1.56598 22.114 1.14721 21.0726 1.48545C20.0116 1.83 19.3604 2.82709 18.7859 3.70694C18.3936 4.30765 17.988 4.92861 17.5781 5.13794C17.158 5.35239 16.4095 5.31653 15.6858 5.28174C14.6435 5.23182 13.4622 5.17511 12.5708 5.82383C11.6751 6.47565 11.3648 7.62035 11.0912 8.63031C10.9024 9.32681 10.7072 10.047 10.3774 10.3767C10.0476 10.7063 9.3274 10.9016 8.6309 11.0903C7.62095 11.3641 6.47625 11.6742 5.82443 12.5699C5.17571 13.4613 5.23218 14.6427 5.28222 15.685C5.31689 16.4088 5.35275 17.1572 5.1383 17.5774C4.92909 17.9871 4.30789 18.3928 3.7073 18.7851C2.82745 19.3596 1.83036 20.011 1.48568 21.072C1.14744 22.1136 1.5661 23.2147 1.93556 24.1864C2.19469 24.868 2.46276 25.5728 2.38817 26.0469C2.31812 26.4927 1.85681 27.0664 1.41062 27.621C0.749514 28.443 0 29.375 0 30.5C0 31.625 0.749514 32.557 1.41074 33.3792C1.85693 33.9339 2.31824 34.5075 2.38829 34.9532C2.46276 35.4272 2.19469 36.1319 1.93556 36.8134C1.5661 37.7847 1.14732 38.8858 1.48545 39.9272C1.83 40.9884 2.82709 41.6396 3.70694 42.2141C4.30753 42.6064 4.92861 43.0119 5.13782 43.4218C5.35227 43.8418 5.31641 44.5903 5.28174 45.3141C5.2317 46.3564 5.17499 47.5377 5.82371 48.4291C6.47553 49.3248 7.62023 49.6351 8.63019 49.9087C9.32668 50.0974 10.0469 50.2927 10.3766 50.6224C10.7063 50.9522 10.9015 51.6724 11.0902 52.369C11.3639 53.3789 11.6741 54.5236 12.5698 55.1755C13.4612 55.8242 14.6425 55.7677 15.6849 55.7177C16.4086 55.683 17.1571 55.6473 17.5772 55.8616C17.987 56.0708 18.3927 56.692 18.7849 57.2926C19.3595 58.1724 20.0107 59.1696 21.0719 59.5142C22.1132 59.8524 23.2146 59.4337 24.1861 59.0643C24.8677 58.8052 25.5725 58.5371 26.0466 58.6117C26.4925 58.6818 27.066 59.1431 27.6207 59.5891C28.443 60.2505 29.375 61 30.5 61C31.625 61 32.557 60.2505 33.3792 59.5894C33.9339 59.1432 34.5075 58.6819 34.9534 58.6118C35.4267 58.5372 36.1319 58.8053 36.8135 59.0646C37.7849 59.434 38.8861 59.8528 39.9274 59.5146C40.9884 59.17 41.6396 58.1729 42.2141 57.2931C42.6064 56.6923 43.012 56.0714 43.4219 55.8621C43.8421 55.6476 44.5905 55.6835 45.3142 55.7183C46.3564 55.7682 47.5378 55.8249 48.4292 55.1762C49.3249 54.5243 49.6352 53.3796 49.9088 52.3697C50.0976 51.6732 50.2928 50.953 50.6226 50.6233C50.9524 50.2937 51.6726 50.0984 52.3691 49.9097C53.3791 49.6359 54.5238 49.3258 55.1756 48.4301C55.8243 47.5387 55.7678 46.3573 55.7178 45.315C55.6831 44.5912 55.6473 43.8428 55.8617 43.4226C56.0709 43.0129 56.6921 42.6072 57.2927 42.2149C58.1726 41.6404 59.1696 40.989 59.5143 39.928C59.8526 38.8864 59.4339 37.7853 59.0644 36.8136C58.8053 36.1321 58.5374 35.4273 58.6118 34.9532ZM57.394 37.4489C57.6714 38.1786 57.9583 38.9333 57.8145 39.3761C57.6647 39.8376 56.9788 40.2855 56.3155 40.7187C55.5191 41.2389 54.6956 41.7765 54.27 42.61C53.8393 43.4536 53.8867 44.4434 53.9326 45.4006C53.9701 46.1849 54.0091 46.9959 53.7305 47.3785C53.4489 47.7655 52.6622 47.9786 51.9015 48.1849C50.9791 48.4348 50.0252 48.6934 49.3588 49.3597C48.6923 50.0261 48.4338 50.9799 48.1838 51.9023C47.9777 52.663 47.7644 53.4497 47.3775 53.7312C46.9948 54.0097 46.1839 53.9708 45.3996 53.9332C44.4423 53.8873 43.4526 53.8399 42.6091 54.2705C41.7756 54.6959 41.2378 55.5194 40.7177 56.3159C40.2847 56.9791 39.8367 57.6649 39.3753 57.8148C38.9328 57.9585 38.1783 57.6716 37.4486 57.3941C36.549 57.0519 35.6185 56.6982 34.6759 56.8463C33.7591 56.9903 32.9965 57.6035 32.2591 58.1966C31.6379 58.6963 30.9956 59.2129 30.5 59.2129C30.0044 59.2129 29.3621 58.6963 28.7409 58.1967C28.0035 57.6037 27.241 56.9904 26.3242 56.8464C26.1726 56.8226 26.0213 56.8117 25.8703 56.8117C25.0828 56.8117 24.3061 57.1071 23.5511 57.3941C22.8214 57.6716 22.0667 57.9586 21.624 57.8147C21.1625 57.6648 20.7145 56.9789 20.2813 56.3156C19.7611 55.5192 19.2233 54.6956 18.3899 54.2701C17.5464 53.8395 16.5567 53.8868 15.5994 53.9327C14.8151 53.9702 14.0041 54.0092 13.6215 53.7306C13.2345 53.449 13.0212 52.6623 12.8151 51.9016C12.565 50.9791 12.3066 50.0252 11.6403 49.3589C10.9739 48.6924 10.0201 48.434 9.0977 48.1839C8.33698 47.9778 7.55042 47.7645 7.26877 47.3776C6.99034 46.9949 7.02918 46.1839 7.06683 45.3997C7.1127 44.4426 7.16023 43.4527 6.72954 42.6092C6.30409 41.7757 5.48059 41.238 4.68413 40.7179C4.02088 40.2848 3.3351 39.8368 3.18522 39.3754C3.04154 38.9328 3.32843 38.1783 3.60591 37.4488C3.94808 36.5491 4.30193 35.6189 4.15372 34.6759C4.00968 33.7591 3.39646 32.9966 2.80338 32.2592C2.3037 31.638 1.78711 30.9956 1.78711 30.5C1.78711 30.0044 2.3037 29.3621 2.80326 28.7409C3.39634 28.0035 4.00956 27.2409 4.1536 26.3241C4.30181 25.3811 3.94796 24.4508 3.60591 23.551C3.32843 22.8213 3.04154 22.0666 3.18534 21.6238C3.33522 21.1622 4.02112 20.7144 4.68437 20.2812C5.48083 19.761 6.30433 19.2233 6.7299 18.3898C7.16059 17.5463 7.11317 16.5565 7.0673 15.5993C7.02977 14.815 6.99081 14.004 7.26937 13.6213C7.55101 13.2344 8.3377 13.0212 9.09841 12.815C10.0208 12.565 10.9746 12.3065 11.6411 11.6402C12.3076 10.9738 12.5661 10.02 12.8161 9.09758C13.0222 8.33687 13.2355 7.55018 13.6224 7.26865C14.0051 6.99022 14.8159 7.02906 15.6003 7.06671C16.5576 7.1127 17.5473 7.15999 18.3908 6.72942C19.2243 6.30397 19.7621 5.48047 20.2821 4.68401C20.7152 4.02076 21.1632 3.33498 21.6246 3.18511C22.067 3.04142 22.8216 3.32831 23.5512 3.60579C24.4509 3.94796 25.3814 4.30169 26.324 4.1536C27.2408 4.00956 28.0034 3.39634 28.7408 2.80326C29.3621 2.3037 30.0044 1.78711 30.5 1.78711C30.9956 1.78711 31.6379 2.3037 32.2591 2.80326C32.9965 3.39634 33.759 4.00956 34.6758 4.1536C35.619 4.30169 36.5491 3.94796 37.4489 3.60591C38.1786 3.32843 38.9333 3.04154 39.376 3.18534C39.8375 3.33522 40.2855 4.02112 40.7187 4.68437C41.2389 5.48083 41.7767 6.30445 42.61 6.7299C43.4536 7.16047 44.4433 7.11317 45.4006 7.0673C46.185 7.02977 46.9959 6.99081 47.3785 7.26937C47.7655 7.55101 47.9788 8.3377 48.1849 9.09841C48.435 10.0209 48.6934 10.9748 49.3597 11.6411C50.0261 12.3076 50.9799 12.566 51.9023 12.8161C52.663 13.0222 53.4496 13.2355 53.7312 13.6224C54.0097 14.0051 53.9708 14.8161 53.9332 15.6003C53.8873 16.5574 53.8398 17.5473 54.2705 18.3908C54.6959 19.2243 55.5194 19.762 56.3159 20.2821C56.9791 20.7152 57.6649 21.1632 57.8148 21.6247C57.9585 22.0673 57.6716 22.8217 57.3941 23.5512C57.0519 24.4509 56.6981 25.3811 56.8463 26.3241C56.9903 27.2409 57.6035 28.0034 58.1966 28.7408C58.6963 29.362 59.2129 30.0044 59.2129 30.5C59.2129 30.9956 58.6963 31.6379 58.1967 32.2591C57.6037 32.9965 56.9904 33.7591 56.8464 34.6759C56.6982 35.6188 57.0519 36.5491 57.394 37.4489Z"/>
</mask>
<path d="M58.6118 34.9532C58.6819 34.5074 59.1432 33.9338 59.5894 33.3792C60.2505 32.557 61 31.625 61 30.5C61 29.375 60.2505 28.443 59.5893 27.6208C59.1431 27.0661 58.6818 26.4925 58.6117 26.0468C58.5372 25.5728 58.8053 24.8681 59.0644 24.1866C59.4339 23.2153 59.8527 22.1142 59.5146 21.0728C59.17 20.0116 58.1729 19.3604 57.2931 18.7859C56.6925 18.3936 56.0714 17.9881 55.8622 17.5782C55.6477 17.1582 55.6836 16.4097 55.7183 15.6859C55.7683 14.6436 55.825 13.4623 55.1763 12.5709C54.5245 11.6752 53.3798 11.3649 52.3698 11.0913C51.6733 10.9026 50.9531 10.7073 50.6234 10.3776C50.2937 10.0478 50.0985 9.32764 49.9098 8.63102C49.6361 7.62107 49.3259 6.47637 48.4302 5.82455C47.5388 5.17571 46.3575 5.2323 45.3151 5.28234C44.5915 5.31701 43.8429 5.35287 43.4228 5.13842C43.013 4.92921 42.6073 4.30801 42.2151 3.70742C41.6405 2.82756 40.9893 1.83036 39.9281 1.4858C38.8867 1.14756 37.7854 1.56634 36.8139 1.93568C36.1323 2.19481 35.4273 2.46276 34.9534 2.38829C34.5075 2.31824 33.934 1.85693 33.3793 1.41086C32.557 0.749514 31.625 0 30.5 0C29.375 0 28.443 0.749514 27.6208 1.41062C27.0661 1.85681 26.4925 2.31812 26.0466 2.38817C25.5731 2.46264 24.868 2.19469 24.1865 1.93544C23.2153 1.56598 22.114 1.14721 21.0726 1.48545C20.0116 1.83 19.3604 2.82709 18.7859 3.70694C18.3936 4.30765 17.988 4.92861 17.5781 5.13794C17.158 5.35239 16.4095 5.31653 15.6858 5.28174C14.6435 5.23182 13.4622 5.17511 12.5708 5.82383C11.6751 6.47565 11.3648 7.62035 11.0912 8.63031C10.9024 9.32681 10.7072 10.047 10.3774 10.3767C10.0476 10.7063 9.3274 10.9016 8.6309 11.0903C7.62095 11.3641 6.47625 11.6742 5.82443 12.5699C5.17571 13.4613 5.23218 14.6427 5.28222 15.685C5.31689 16.4088 5.35275 17.1572 5.1383 17.5774C4.92909 17.9871 4.30789 18.3928 3.7073 18.7851C2.82745 19.3596 1.83036 20.011 1.48568 21.072C1.14744 22.1136 1.5661 23.2147 1.93556 24.1864C2.19469 24.868 2.46276 25.5728 2.38817 26.0469C2.31812 26.4927 1.85681 27.0664 1.41062 27.621C0.749514 28.443 0 29.375 0 30.5C0 31.625 0.749514 32.557 1.41074 33.3792C1.85693 33.9339 2.31824 34.5075 2.38829 34.9532C2.46276 35.4272 2.19469 36.1319 1.93556 36.8134C1.5661 37.7847 1.14732 38.8858 1.48545 39.9272C1.83 40.9884 2.82709 41.6396 3.70694 42.2141C4.30753 42.6064 4.92861 43.0119 5.13782 43.4218C5.35227 43.8418 5.31641 44.5903 5.28174 45.3141C5.2317 46.3564 5.17499 47.5377 5.82371 48.4291C6.47553 49.3248 7.62023 49.6351 8.63019 49.9087C9.32668 50.0974 10.0469 50.2927 10.3766 50.6224C10.7063 50.9522 10.9015 51.6724 11.0902 52.369C11.3639 53.3789 11.6741 54.5236 12.5698 55.1755C13.4612 55.8242 14.6425 55.7677 15.6849 55.7177C16.4086 55.683 17.1571 55.6473 17.5772 55.8616C17.987 56.0708 18.3927 56.692 18.7849 57.2926C19.3595 58.1724 20.0107 59.1696 21.0719 59.5142C22.1132 59.8524 23.2146 59.4337 24.1861 59.0643C24.8677 58.8052 25.5725 58.5371 26.0466 58.6117C26.4925 58.6818 27.066 59.1431 27.6207 59.5891C28.443 60.2505 29.375 61 30.5 61C31.625 61 32.557 60.2505 33.3792 59.5894C33.9339 59.1432 34.5075 58.6819 34.9534 58.6118C35.4267 58.5372 36.1319 58.8053 36.8135 59.0646C37.7849 59.434 38.8861 59.8528 39.9274 59.5146C40.9884 59.17 41.6396 58.1729 42.2141 57.2931C42.6064 56.6923 43.012 56.0714 43.4219 55.8621C43.8421 55.6476 44.5905 55.6835 45.3142 55.7183C46.3564 55.7682 47.5378 55.8249 48.4292 55.1762C49.3249 54.5243 49.6352 53.3796 49.9088 52.3697C50.0976 51.6732 50.2928 50.953 50.6226 50.6233C50.9524 50.2937 51.6726 50.0984 52.3691 49.9097C53.3791 49.6359 54.5238 49.3258 55.1756 48.4301C55.8243 47.5387 55.7678 46.3573 55.7178 45.315C55.6831 44.5912 55.6473 43.8428 55.8617 43.4226C56.0709 43.0129 56.6921 42.6072 57.2927 42.2149C58.1726 41.6404 59.1696 40.989 59.5143 39.928C59.8526 38.8864 59.4339 37.7853 59.0644 36.8136C58.8053 36.1321 58.5374 35.4273 58.6118 34.9532ZM57.394 37.4489C57.6714 38.1786 57.9583 38.9333 57.8145 39.3761C57.6647 39.8376 56.9788 40.2855 56.3155 40.7187C55.5191 41.2389 54.6956 41.7765 54.27 42.61C53.8393 43.4536 53.8867 44.4434 53.9326 45.4006C53.9701 46.1849 54.0091 46.9959 53.7305 47.3785C53.4489 47.7655 52.6622 47.9786 51.9015 48.1849C50.9791 48.4348 50.0252 48.6934 49.3588 49.3597C48.6923 50.0261 48.4338 50.9799 48.1838 51.9023C47.9777 52.663 47.7644 53.4497 47.3775 53.7312C46.9948 54.0097 46.1839 53.9708 45.3996 53.9332C44.4423 53.8873 43.4526 53.8399 42.6091 54.2705C41.7756 54.6959 41.2378 55.5194 40.7177 56.3159C40.2847 56.9791 39.8367 57.6649 39.3753 57.8148C38.9328 57.9585 38.1783 57.6716 37.4486 57.3941C36.549 57.0519 35.6185 56.6982 34.6759 56.8463C33.7591 56.9903 32.9965 57.6035 32.2591 58.1966C31.6379 58.6963 30.9956 59.2129 30.5 59.2129C30.0044 59.2129 29.3621 58.6963 28.7409 58.1967C28.0035 57.6037 27.241 56.9904 26.3242 56.8464C26.1726 56.8226 26.0213 56.8117 25.8703 56.8117C25.0828 56.8117 24.3061 57.1071 23.5511 57.3941C22.8214 57.6716 22.0667 57.9586 21.624 57.8147C21.1625 57.6648 20.7145 56.9789 20.2813 56.3156C19.7611 55.5192 19.2233 54.6956 18.3899 54.2701C17.5464 53.8395 16.5567 53.8868 15.5994 53.9327C14.8151 53.9702 14.0041 54.0092 13.6215 53.7306C13.2345 53.449 13.0212 52.6623 12.8151 51.9016C12.565 50.9791 12.3066 50.0252 11.6403 49.3589C10.9739 48.6924 10.0201 48.434 9.0977 48.1839C8.33698 47.9778 7.55042 47.7645 7.26877 47.3776C6.99034 46.9949 7.02918 46.1839 7.06683 45.3997C7.1127 44.4426 7.16023 43.4527 6.72954 42.6092C6.30409 41.7757 5.48059 41.238 4.68413 40.7179C4.02088 40.2848 3.3351 39.8368 3.18522 39.3754C3.04154 38.9328 3.32843 38.1783 3.60591 37.4488C3.94808 36.5491 4.30193 35.6189 4.15372 34.6759C4.00968 33.7591 3.39646 32.9966 2.80338 32.2592C2.3037 31.638 1.78711 30.9956 1.78711 30.5C1.78711 30.0044 2.3037 29.3621 2.80326 28.7409C3.39634 28.0035 4.00956 27.2409 4.1536 26.3241C4.30181 25.3811 3.94796 24.4508 3.60591 23.551C3.32843 22.8213 3.04154 22.0666 3.18534 21.6238C3.33522 21.1622 4.02112 20.7144 4.68437 20.2812C5.48083 19.761 6.30433 19.2233 6.7299 18.3898C7.16059 17.5463 7.11317 16.5565 7.0673 15.5993C7.02977 14.815 6.99081 14.004 7.26937 13.6213C7.55101 13.2344 8.3377 13.0212 9.09841 12.815C10.0208 12.565 10.9746 12.3065 11.6411 11.6402C12.3076 10.9738 12.5661 10.02 12.8161 9.09758C13.0222 8.33687 13.2355 7.55018 13.6224 7.26865C14.0051 6.99022 14.8159 7.02906 15.6003 7.06671C16.5576 7.1127 17.5473 7.15999 18.3908 6.72942C19.2243 6.30397 19.7621 5.48047 20.2821 4.68401C20.7152 4.02076 21.1632 3.33498 21.6246 3.18511C22.067 3.04142 22.8216 3.32831 23.5512 3.60579C24.4509 3.94796 25.3814 4.30169 26.324 4.1536C27.2408 4.00956 28.0034 3.39634 28.7408 2.80326C29.3621 2.3037 30.0044 1.78711 30.5 1.78711C30.9956 1.78711 31.6379 2.3037 32.2591 2.80326C32.9965 3.39634 33.759 4.00956 34.6758 4.1536C35.619 4.30169 36.5491 3.94796 37.4489 3.60591C38.1786 3.32843 38.9333 3.04154 39.376 3.18534C39.8375 3.33522 40.2855 4.02112 40.7187 4.68437C41.2389 5.48083 41.7767 6.30445 42.61 6.7299C43.4536 7.16047 44.4433 7.11317 45.4006 7.0673C46.185 7.02977 46.9959 6.99081 47.3785 7.26937C47.7655 7.55101 47.9788 8.3377 48.1849 9.09841C48.435 10.0209 48.6934 10.9748 49.3597 11.6411C50.0261 12.3076 50.9799 12.566 51.9023 12.8161C52.663 13.0222 53.4496 13.2355 53.7312 13.6224C54.0097 14.0051 53.9708 14.8161 53.9332 15.6003C53.8873 16.5574 53.8398 17.5473 54.2705 18.3908C54.6959 19.2243 55.5194 19.762 56.3159 20.2821C56.9791 20.7152 57.6649 21.1632 57.8148 21.6247C57.9585 22.0673 57.6716 22.8217 57.3941 23.5512C57.0519 24.4509 56.6981 25.3811 56.8463 26.3241C56.9903 27.2409 57.6035 28.0034 58.1966 28.7408C58.6963 29.362 59.2129 30.0044 59.2129 30.5C59.2129 30.9956 58.6963 31.6379 58.1967 32.2591C57.6037 32.9965 56.9904 33.7591 56.8464 34.6759C56.6982 35.6188 57.0519 36.5491 57.394 37.4489Z" fill="#FFC800"/>
<path d="M58.6118 34.9532C58.6819 34.5074 59.1432 33.9338 59.5894 33.3792C60.2505 32.557 61 31.625 61 30.5C61 29.375 60.2505 28.443 59.5893 27.6208C59.1431 27.0661 58.6818 26.4925 58.6117 26.0468C58.5372 25.5728 58.8053 24.8681 59.0644 24.1866C59.4339 23.2153 59.8527 22.1142 59.5146 21.0728C59.17 20.0116 58.1729 19.3604 57.2931 18.7859C56.6925 18.3936 56.0714 17.9881 55.8622 17.5782C55.6477 17.1582 55.6836 16.4097 55.7183 15.6859C55.7683 14.6436 55.825 13.4623 55.1763 12.5709C54.5245 11.6752 53.3798 11.3649 52.3698 11.0913C51.6733 10.9026 50.9531 10.7073 50.6234 10.3776C50.2937 10.0478 50.0985 9.32764 49.9098 8.63102C49.6361 7.62107 49.3259 6.47637 48.4302 5.82455C47.5388 5.17571 46.3575 5.2323 45.3151 5.28234C44.5915 5.31701 43.8429 5.35287 43.4228 5.13842C43.013 4.92921 42.6073 4.30801 42.2151 3.70742C41.6405 2.82756 40.9893 1.83036 39.9281 1.4858C38.8867 1.14756 37.7854 1.56634 36.8139 1.93568C36.1323 2.19481 35.4273 2.46276 34.9534 2.38829C34.5075 2.31824 33.934 1.85693 33.3793 1.41086C32.557 0.749514 31.625 0 30.5 0C29.375 0 28.443 0.749514 27.6208 1.41062C27.0661 1.85681 26.4925 2.31812 26.0466 2.38817C25.5731 2.46264 24.868 2.19469 24.1865 1.93544C23.2153 1.56598 22.114 1.14721 21.0726 1.48545C20.0116 1.83 19.3604 2.82709 18.7859 3.70694C18.3936 4.30765 17.988 4.92861 17.5781 5.13794C17.158 5.35239 16.4095 5.31653 15.6858 5.28174C14.6435 5.23182 13.4622 5.17511 12.5708 5.82383C11.6751 6.47565 11.3648 7.62035 11.0912 8.63031C10.9024 9.32681 10.7072 10.047 10.3774 10.3767C10.0476 10.7063 9.3274 10.9016 8.6309 11.0903C7.62095 11.3641 6.47625 11.6742 5.82443 12.5699C5.17571 13.4613 5.23218 14.6427 5.28222 15.685C5.31689 16.4088 5.35275 17.1572 5.1383 17.5774C4.92909 17.9871 4.30789 18.3928 3.7073 18.7851C2.82745 19.3596 1.83036 20.011 1.48568 21.072C1.14744 22.1136 1.5661 23.2147 1.93556 24.1864C2.19469 24.868 2.46276 25.5728 2.38817 26.0469C2.31812 26.4927 1.85681 27.0664 1.41062 27.621C0.749514 28.443 0 29.375 0 30.5C0 31.625 0.749514 32.557 1.41074 33.3792C1.85693 33.9339 2.31824 34.5075 2.38829 34.9532C2.46276 35.4272 2.19469 36.1319 1.93556 36.8134C1.5661 37.7847 1.14732 38.8858 1.48545 39.9272C1.83 40.9884 2.82709 41.6396 3.70694 42.2141C4.30753 42.6064 4.92861 43.0119 5.13782 43.4218C5.35227 43.8418 5.31641 44.5903 5.28174 45.3141C5.2317 46.3564 5.17499 47.5377 5.82371 48.4291C6.47553 49.3248 7.62023 49.6351 8.63019 49.9087C9.32668 50.0974 10.0469 50.2927 10.3766 50.6224C10.7063 50.9522 10.9015 51.6724 11.0902 52.369C11.3639 53.3789 11.6741 54.5236 12.5698 55.1755C13.4612 55.8242 14.6425 55.7677 15.6849 55.7177C16.4086 55.683 17.1571 55.6473 17.5772 55.8616C17.987 56.0708 18.3927 56.692 18.7849 57.2926C19.3595 58.1724 20.0107 59.1696 21.0719 59.5142C22.1132 59.8524 23.2146 59.4337 24.1861 59.0643C24.8677 58.8052 25.5725 58.5371 26.0466 58.6117C26.4925 58.6818 27.066 59.1431 27.6207 59.5891C28.443 60.2505 29.375 61 30.5 61C31.625 61 32.557 60.2505 33.3792 59.5894C33.9339 59.1432 34.5075 58.6819 34.9534 58.6118C35.4267 58.5372 36.1319 58.8053 36.8135 59.0646C37.7849 59.434 38.8861 59.8528 39.9274 59.5146C40.9884 59.17 41.6396 58.1729 42.2141 57.2931C42.6064 56.6923 43.012 56.0714 43.4219 55.8621C43.8421 55.6476 44.5905 55.6835 45.3142 55.7183C46.3564 55.7682 47.5378 55.8249 48.4292 55.1762C49.3249 54.5243 49.6352 53.3796 49.9088 52.3697C50.0976 51.6732 50.2928 50.953 50.6226 50.6233C50.9524 50.2937 51.6726 50.0984 52.3691 49.9097C53.3791 49.6359 54.5238 49.3258 55.1756 48.4301C55.8243 47.5387 55.7678 46.3573 55.7178 45.315C55.6831 44.5912 55.6473 43.8428 55.8617 43.4226C56.0709 43.0129 56.6921 42.6072 57.2927 42.2149C58.1726 41.6404 59.1696 40.989 59.5143 39.928C59.8526 38.8864 59.4339 37.7853 59.0644 36.8136C58.8053 36.1321 58.5374 35.4273 58.6118 34.9532ZM57.394 37.4489C57.6714 38.1786 57.9583 38.9333 57.8145 39.3761C57.6647 39.8376 56.9788 40.2855 56.3155 40.7187C55.5191 41.2389 54.6956 41.7765 54.27 42.61C53.8393 43.4536 53.8867 44.4434 53.9326 45.4006C53.9701 46.1849 54.0091 46.9959 53.7305 47.3785C53.4489 47.7655 52.6622 47.9786 51.9015 48.1849C50.9791 48.4348 50.0252 48.6934 49.3588 49.3597C48.6923 50.0261 48.4338 50.9799 48.1838 51.9023C47.9777 52.663 47.7644 53.4497 47.3775 53.7312C46.9948 54.0097 46.1839 53.9708 45.3996 53.9332C44.4423 53.8873 43.4526 53.8399 42.6091 54.2705C41.7756 54.6959 41.2378 55.5194 40.7177 56.3159C40.2847 56.9791 39.8367 57.6649 39.3753 57.8148C38.9328 57.9585 38.1783 57.6716 37.4486 57.3941C36.549 57.0519 35.6185 56.6982 34.6759 56.8463C33.7591 56.9903 32.9965 57.6035 32.2591 58.1966C31.6379 58.6963 30.9956 59.2129 30.5 59.2129C30.0044 59.2129 29.3621 58.6963 28.7409 58.1967C28.0035 57.6037 27.241 56.9904 26.3242 56.8464C26.1726 56.8226 26.0213 56.8117 25.8703 56.8117C25.0828 56.8117 24.3061 57.1071 23.5511 57.3941C22.8214 57.6716 22.0667 57.9586 21.624 57.8147C21.1625 57.6648 20.7145 56.9789 20.2813 56.3156C19.7611 55.5192 19.2233 54.6956 18.3899 54.2701C17.5464 53.8395 16.5567 53.8868 15.5994 53.9327C14.8151 53.9702 14.0041 54.0092 13.6215 53.7306C13.2345 53.449 13.0212 52.6623 12.8151 51.9016C12.565 50.9791 12.3066 50.0252 11.6403 49.3589C10.9739 48.6924 10.0201 48.434 9.0977 48.1839C8.33698 47.9778 7.55042 47.7645 7.26877 47.3776C6.99034 46.9949 7.02918 46.1839 7.06683 45.3997C7.1127 44.4426 7.16023 43.4527 6.72954 42.6092C6.30409 41.7757 5.48059 41.238 4.68413 40.7179C4.02088 40.2848 3.3351 39.8368 3.18522 39.3754C3.04154 38.9328 3.32843 38.1783 3.60591 37.4488C3.94808 36.5491 4.30193 35.6189 4.15372 34.6759C4.00968 33.7591 3.39646 32.9966 2.80338 32.2592C2.3037 31.638 1.78711 30.9956 1.78711 30.5C1.78711 30.0044 2.3037 29.3621 2.80326 28.7409C3.39634 28.0035 4.00956 27.2409 4.1536 26.3241C4.30181 25.3811 3.94796 24.4508 3.60591 23.551C3.32843 22.8213 3.04154 22.0666 3.18534 21.6238C3.33522 21.1622 4.02112 20.7144 4.68437 20.2812C5.48083 19.761 6.30433 19.2233 6.7299 18.3898C7.16059 17.5463 7.11317 16.5565 7.0673 15.5993C7.02977 14.815 6.99081 14.004 7.26937 13.6213C7.55101 13.2344 8.3377 13.0212 9.09841 12.815C10.0208 12.565 10.9746 12.3065 11.6411 11.6402C12.3076 10.9738 12.5661 10.02 12.8161 9.09758C13.0222 8.33687 13.2355 7.55018 13.6224 7.26865C14.0051 6.99022 14.8159 7.02906 15.6003 7.06671C16.5576 7.1127 17.5473 7.15999 18.3908 6.72942C19.2243 6.30397 19.7621 5.48047 20.2821 4.68401C20.7152 4.02076 21.1632 3.33498 21.6246 3.18511C22.067 3.04142 22.8216 3.32831 23.5512 3.60579C24.4509 3.94796 25.3814 4.30169 26.324 4.1536C27.2408 4.00956 28.0034 3.39634 28.7408 2.80326C29.3621 2.3037 30.0044 1.78711 30.5 1.78711C30.9956 1.78711 31.6379 2.3037 32.2591 2.80326C32.9965 3.39634 33.759 4.00956 34.6758 4.1536C35.619 4.30169 36.5491 3.94796 37.4489 3.60591C38.1786 3.32843 38.9333 3.04154 39.376 3.18534C39.8375 3.33522 40.2855 4.02112 40.7187 4.68437C41.2389 5.48083 41.7767 6.30445 42.61 6.7299C43.4536 7.16047 44.4433 7.11317 45.4006 7.0673C46.185 7.02977 46.9959 6.99081 47.3785 7.26937C47.7655 7.55101 47.9788 8.3377 48.1849 9.09841C48.435 10.0209 48.6934 10.9748 49.3597 11.6411C50.0261 12.3076 50.9799 12.566 51.9023 12.8161C52.663 13.0222 53.4496 13.2355 53.7312 13.6224C54.0097 14.0051 53.9708 14.8161 53.9332 15.6003C53.8873 16.5574 53.8398 17.5473 54.2705 18.3908C54.6959 19.2243 55.5194 19.762 56.3159 20.2821C56.9791 20.7152 57.6649 21.1632 57.8148 21.6247C57.9585 22.0673 57.6716 22.8217 57.3941 23.5512C57.0519 24.4509 56.6981 25.3811 56.8463 26.3241C56.9903 27.2409 57.6035 28.0034 58.1966 28.7408C58.6963 29.362 59.2129 30.0044 59.2129 30.5C59.2129 30.9956 58.6963 31.6379 58.1967 32.2591C57.6037 32.9965 56.9904 33.7591 56.8464 34.6759C56.6982 35.6188 57.0519 36.5491 57.394 37.4489Z" stroke="#FFC800" stroke-width="0.4" mask="url(#path-1-outside-1)"/>
<path d="M44.0439 46.637C40.0236 50.0192 34.9077 51.765 29.6387 51.5524C24.3386 51.3389 19.3525 49.1541 15.599 45.4005C11.8454 41.647 9.66064 36.6608 9.44702 31.3608C9.23471 26.0917 10.9804 20.9759 14.3624 16.9558C14.6802 16.5781 14.6315 16.0144 14.2539 15.6968C13.8763 15.3792 13.3125 15.4278 12.9949 15.8053C9.32526 20.1674 7.43116 25.7174 7.66134 31.4328C7.89307 37.183 10.2631 42.5923 14.3352 46.6643C18.4072 50.7364 23.8167 53.1066 29.5668 53.3383C29.8783 53.3508 30.1883 53.3572 30.4987 53.357C35.8828 53.3568 41.0699 51.4744 45.1943 48.0048C45.572 47.6871 45.6206 47.1235 45.3029 46.7458C44.9851 46.3681 44.4216 46.3194 44.0439 46.637Z" fill="#6A3DF7"/>
<path d="M46.6647 14.3359C42.5925 10.2638 37.1832 7.89357 31.4331 7.66185C25.717 7.43155 20.1677 9.32576 15.8057 12.9954C15.428 13.313 15.3794 13.8767 15.6971 14.2544C16.0148 14.6319 16.5784 14.6805 16.9561 14.3629C20.9764 10.9809 26.0925 9.23569 31.3612 9.44753C36.6612 9.66103 41.6474 11.8458 45.401 15.5995C49.1546 19.353 51.3394 24.339 51.553 29.6392C51.7653 34.9084 50.0197 40.0241 46.6376 44.0443C46.3199 44.422 46.3685 44.9856 46.7461 45.3033C46.9137 45.4442 47.1179 45.5131 47.3209 45.5131C47.5755 45.5131 47.8284 45.4048 48.0051 45.1947C51.6748 40.8326 53.5689 35.2827 53.3387 29.5673C53.1069 23.8172 50.7368 18.4079 46.6647 14.3359Z" fill="#6A3DF7"/>
<path d="M35.6714 18.2986C35.2162 18.1076 34.6927 18.3217 34.5017 18.7768L25.1529 41.0533C24.9619 41.5083 25.176 42.032 25.631 42.223C25.7439 42.2704 25.8612 42.2928 25.9764 42.2928C26.3256 42.2928 26.6571 42.0868 26.8007 41.7448L36.1495 19.4683C36.3405 19.0133 36.1265 18.4896 35.6714 18.2986Z" fill="#6A3DF7"/>
<path d="M24.1865 17.1907C21.416 17.1907 19.1621 19.7449 19.1621 22.8845C19.1621 26.0241 21.416 28.5783 24.1865 28.5783C26.9569 28.5783 29.2109 26.0241 29.2109 22.8845C29.2109 19.7449 26.9569 17.1907 24.1865 17.1907ZM24.1865 26.7911C22.4014 26.7911 20.9492 25.0386 20.9492 22.8845C20.9492 20.7303 22.4014 18.9778 24.1865 18.9778C25.9715 18.9778 27.4238 20.7303 27.4238 22.8845C27.4238 25.0386 25.9715 26.7911 24.1865 26.7911Z" fill="#FFC800"/>
<path d="M31.7891 38.1154C31.7891 41.255 34.043 43.8092 36.8135 43.8092C39.584 43.8092 41.8379 41.255 41.8379 38.1154C41.8379 34.9758 39.584 32.4216 36.8135 32.4216C34.0431 32.4216 31.7891 34.9758 31.7891 38.1154ZM36.8135 34.2087C38.5985 34.2087 40.0507 35.9612 40.0507 38.1154C40.0507 40.2695 38.5985 42.0221 36.8135 42.0221C35.0285 42.0221 33.5762 40.2695 33.5762 38.1154C33.5762 35.9612 35.0285 34.2087 36.8135 34.2087Z" fill="#FFC800"/>
</g>
<defs>
<clipPath id="clip0">
<rect width="61" height="61" fill="white"/>
</clipPath>
</defs>
</svg>
