<svg width="67" height="51" viewBox="0 0 67 51" fill="none" xmlns="http://www.w3.org/2000/svg">
<path d="M12.9478 39.6326C12.3123 39.6326 11.691 39.821 11.1625 40.1741C10.6341 40.5272 10.2222 41.0291 9.97898 41.6163C9.73577 42.2035 9.67213 42.8496 9.79612 43.4729C9.92011 44.0963 10.2262 44.6688 10.6756 45.1182C11.125 45.5676 11.6976 45.8737 12.3209 45.9977C12.9442 46.1217 13.5904 46.058 14.1775 45.8148C14.7647 45.5716 15.2666 45.1597 15.6197 44.6313C15.9728 44.1028 16.1612 43.4816 16.1612 42.846C16.1603 41.994 15.8214 41.1772 15.219 40.5748C14.6166 39.9724 13.7998 39.6335 12.9478 39.6326ZM12.9478 43.9171C12.736 43.9171 12.5289 43.8543 12.3527 43.7366C12.1766 43.6189 12.0393 43.4516 11.9582 43.2559C11.8771 43.0602 11.8559 42.8448 11.8972 42.637C11.9386 42.4292 12.0406 42.2384 12.1904 42.0886C12.3402 41.9388 12.5311 41.8368 12.7388 41.7954C12.9466 41.7541 13.162 41.7753 13.3577 41.8564C13.5534 41.9375 13.7207 42.0748 13.8384 42.2509C13.9561 42.4271 14.0189 42.6341 14.0189 42.846C14.0186 43.13 13.9057 43.4023 13.7049 43.6031C13.5041 43.8039 13.2318 43.9168 12.9478 43.9171Z" fill="#6A3DF7"/>
<path d="M53.6509 39.6326C53.0154 39.6326 52.3941 39.821 51.8656 40.1741C51.3372 40.5272 50.9253 41.0291 50.6821 41.6163C50.4389 42.2035 50.3753 42.8496 50.4992 43.4729C50.6232 44.0963 50.9293 44.6688 51.3787 45.1182C51.8281 45.5676 52.4007 45.8737 53.024 45.9977C53.6474 46.1217 54.2935 46.058 54.8807 45.8148C55.4678 45.5716 55.9697 45.1597 56.3228 44.6313C56.6759 44.1028 56.8644 43.4816 56.8644 42.846C56.8634 41.994 56.5245 41.1772 55.9221 40.5748C55.3197 39.9724 54.5029 39.6335 53.6509 39.6326ZM53.6509 43.9171C53.4391 43.9171 53.232 43.8543 53.0558 43.7366C52.8797 43.6189 52.7424 43.4516 52.6613 43.2559C52.5803 43.0602 52.559 42.8448 52.6004 42.637C52.6417 42.4292 52.7437 42.2384 52.8935 42.0886C53.0433 41.9388 53.2342 41.8368 53.442 41.7954C53.6497 41.7541 53.8651 41.7753 54.0608 41.8564C54.2566 41.9375 54.4239 42.0748 54.5416 42.2509C54.6593 42.4271 54.7221 42.6341 54.7221 42.846C54.7218 43.13 54.6088 43.4023 54.408 43.6031C54.2072 43.8039 53.9349 43.9168 53.6509 43.9171Z" fill="#6A3DF7"/>
<path d="M66.3346 25.1279L56.6943 10.1319C56.5973 9.98113 56.4639 9.85713 56.3064 9.77127C56.149 9.68542 55.9725 9.64046 55.7932 9.64053H42.9395V3.74925C42.9384 2.75529 42.5431 1.80235 41.8402 1.09952C41.1374 0.396679 40.1844 0.00134277 39.1905 0.000244141H3.84275C2.84879 0.00134277 1.89586 0.396679 1.19302 1.09952C0.490185 1.80235 0.0948486 2.75529 0.09375 3.74925V42.846C0.09375 43.1301 0.206602 43.4025 0.407481 43.6034C0.608359 43.8043 0.880809 43.9171 1.16489 43.9171H5.52713C5.78461 45.7015 6.67647 47.3334 8.03929 48.5136C9.40211 49.6939 11.1446 50.3436 12.9475 50.3436C14.7503 50.3436 16.4928 49.6939 17.8557 48.5136C19.2185 47.3334 20.1103 45.7015 20.3678 43.9171H46.2306C46.4881 45.7015 47.3799 47.3334 48.7427 48.5136C50.1056 49.6939 51.8481 50.3436 53.6509 50.3436C55.4538 50.3436 57.1963 49.6939 58.5591 48.5136C59.9219 47.3334 60.8138 45.7015 61.0713 43.9171H65.4335C65.7176 43.9171 65.99 43.8043 66.1909 43.6034C66.3918 43.4025 66.5046 43.1301 66.5046 42.846V25.7077C66.5046 25.5021 66.4456 25.3009 66.3346 25.1279ZM12.9475 48.2017C11.8882 48.2017 10.8527 47.8876 9.972 47.2991C9.09125 46.7106 8.4048 45.8742 7.99943 44.8955C7.59407 43.9169 7.48801 42.84 7.69466 41.8011C7.90131 40.7622 8.4114 39.8079 9.16041 39.0589C9.90942 38.3099 10.8637 37.7998 11.9026 37.5932C12.9415 37.3865 14.0184 37.4926 14.997 37.8979C15.9756 38.3033 16.8121 38.9898 17.4006 39.8705C17.9891 40.7512 18.3032 41.7867 18.3032 42.846C18.3018 44.266 17.7371 45.6274 16.733 46.6315C15.7289 47.6356 14.3675 48.2003 12.9475 48.2017ZM40.7972 41.7748H20.3678C20.1103 39.9904 19.2185 38.3586 17.8557 37.1783C16.4928 35.998 14.7503 35.3484 12.9475 35.3484C11.1446 35.3484 9.40211 35.998 8.03929 37.1783C6.67647 38.3586 5.78461 39.9904 5.52713 41.7748H2.23604V31.0634H40.7972V41.7748ZM40.7972 28.9211H2.23604V3.74925C2.23639 3.32323 2.40578 2.91476 2.70702 2.61352C3.00827 2.31228 3.41673 2.14289 3.84275 2.14253H39.1905C39.6165 2.14289 40.025 2.31228 40.3262 2.61352C40.6275 2.91476 40.7968 3.32323 40.7972 3.74925V28.9211ZM57.2741 14.9963L63.472 24.6365H48.2952V14.9963H57.2741ZM53.6509 48.2017C52.5917 48.2017 51.5562 47.8876 50.6754 47.2991C49.7947 46.7106 49.1082 45.8742 48.7029 44.8955C48.2975 43.9169 48.1915 42.84 48.3981 41.8011C48.6048 40.7622 49.1148 39.8079 49.8639 39.0589C50.6129 38.3099 51.5672 37.7998 52.6061 37.5932C53.645 37.3865 54.7218 37.4926 55.7005 37.8979C56.6791 38.3033 57.5155 38.9898 58.104 39.8705C58.6925 40.7512 59.0066 41.7867 59.0066 42.846C59.0052 44.266 58.4405 45.6274 57.4364 46.6315C56.4323 47.6356 55.0709 48.2003 53.6509 48.2017ZM64.3624 33.2057H62.2201C61.936 33.2057 61.6635 33.0928 61.4627 32.892C61.2618 32.6911 61.1489 32.4186 61.1489 32.1345C61.1489 31.8505 61.2618 31.578 61.4627 31.3771C61.6635 31.1763 61.936 31.0634 62.2201 31.0634H64.3624V33.2057ZM64.3624 28.9211H62.2201C61.3678 28.9211 60.5505 29.2597 59.9478 29.8623C59.3452 30.4649 59.0066 31.2823 59.0066 32.1345C59.0066 32.9868 59.3452 33.8041 59.9478 34.4068C60.5505 35.0094 61.3678 35.348 62.2201 35.348H64.3624V41.7748H61.0713C60.8138 39.9904 59.9219 38.3586 58.5591 37.1783C57.1963 35.998 55.4538 35.3484 53.6509 35.3484C51.8481 35.3484 50.1056 35.998 48.7427 37.1783C47.3799 38.3586 46.4881 39.9904 46.2306 41.7748H42.9395V11.7828H55.2081L55.8976 12.854H47.2241C46.94 12.854 46.6675 12.9668 46.4667 13.1677C46.2658 13.3686 46.1529 13.641 46.1529 13.9251V25.7077C46.1529 25.9918 46.2658 26.2642 46.4667 26.4651C46.6675 26.666 46.94 26.7788 47.2241 26.7788H64.3624V28.9211Z" fill="#FFC800"/>
<path d="M50.4379 28.9211H47.2245C46.9404 28.9211 46.6679 29.034 46.4671 29.2349C46.2662 29.4358 46.1533 29.7082 46.1533 29.9923C46.1533 30.2764 46.2662 30.5488 46.4671 30.7497C46.6679 30.9506 46.9404 31.0634 47.2245 31.0634H50.4379C50.722 31.0634 50.9944 30.9506 51.1953 30.7497C51.3962 30.5488 51.509 30.2764 51.509 29.9923C51.509 29.7082 51.3962 29.4358 51.1953 29.2349C50.9944 29.034 50.722 28.9211 50.4379 28.9211Z" fill="#6A3DF7"/>
<path d="M27.9432 35.3481H36.5124C36.7964 35.3481 37.0689 35.2352 37.2698 35.0344C37.4707 34.8335 37.5835 34.561 37.5835 34.277C37.5835 33.9929 37.4707 33.7204 37.2698 33.5195C37.0689 33.3187 36.7964 33.2058 36.5124 33.2058H27.9432C27.6591 33.2058 27.3867 33.3187 27.1858 33.5195C26.9849 33.7204 26.8721 33.9929 26.8721 34.277C26.8721 34.561 26.9849 34.8335 27.1858 35.0344C27.3867 35.2352 27.6591 35.3481 27.9432 35.3481Z" fill="#6A3DF7"/>
<path d="M36.5131 36.4192H33.2997C33.0156 36.4192 32.7431 36.532 32.5422 36.7329C32.3414 36.9338 32.2285 37.2062 32.2285 37.4903C32.2285 37.7744 32.3414 38.0469 32.5422 38.2477C32.7431 38.4486 33.0156 38.5615 33.2997 38.5615H36.5131C36.7972 38.5615 37.0696 38.4486 37.2705 38.2477C37.4714 38.0469 37.5842 37.7744 37.5842 37.4903C37.5842 37.2062 37.4714 36.9338 37.2705 36.7329C37.0696 36.532 36.7972 36.4192 36.5131 36.4192Z" fill="#6A3DF7"/>
</svg>
