<svg width="14" height="15" viewBox="0 0 14 15" fill="none" xmlns="http://www.w3.org/2000/svg">
<path d="M14 7.40533C14.0027 8.42702 13.7628 9.43489 13.3 10.3469C12.7512 11.4397 11.9076 12.3588 10.8636 13.0014C9.81957 13.644 8.61642 13.9846 7.38889 13.9851C6.36233 13.9877 5.34965 13.749 4.43334 13.2884L0 14.7592L1.47778 10.3469C1.01495 9.43489 0.775102 8.42702 0.777778 7.40533C0.778253 6.18363 1.12048 4.98619 1.76612 3.94713C2.41176 2.90807 3.33531 2.06843 4.43334 1.52226C5.34965 1.06163 6.36233 0.82292 7.38889 0.825584H7.77778C9.39894 0.914597 10.9302 1.59562 12.0782 2.73824C13.2263 3.88087 13.9106 5.40482 14 7.01828V7.40533Z" fill="#D9D9D9"/>
</svg>
