<svg width="22" height="21" viewBox="0 0 22 21" fill="none" xmlns="http://www.w3.org/2000/svg">
<path d="M8.27237 19.7379C8.77445 19.7379 9.18146 19.3384 9.18146 18.8455C9.18146 18.3527 8.77445 17.9531 8.27237 17.9531C7.7703 17.9531 7.36328 18.3527 7.36328 18.8455C7.36328 19.3384 7.7703 19.7379 8.27237 19.7379Z" stroke="#6A3DF7" stroke-width="1.2" stroke-linecap="round" stroke-linejoin="round"/>
<path d="M18.2724 19.7379C18.7744 19.7379 19.1815 19.3384 19.1815 18.8455C19.1815 18.3527 18.7744 17.9531 18.2724 17.9531C17.7703 17.9531 17.3633 18.3527 17.3633 18.8455C17.3633 19.3384 17.7703 19.7379 18.2724 19.7379Z" stroke="#6A3DF7" stroke-width="1.2" stroke-linecap="round" stroke-linejoin="round"/>
<path d="M1 1H4.63636L7.07273 12.9491C7.15586 13.3599 7.38355 13.729 7.71595 13.9917C8.04835 14.2543 8.46427 14.3939 8.89091 14.3858H17.7273C18.1539 14.3939 18.5698 14.2543 18.9022 13.9917C19.2346 13.729 19.4623 13.3599 19.5455 12.9491L21 5.46194H5.54545" stroke="#6A3DF7" stroke-width="2" stroke-linecap="round" stroke-linejoin="round"/>
</svg>
