<svg width="34" height="35" viewBox="0 0 34 35" fill="none" xmlns="http://www.w3.org/2000/svg">
<circle cx="17" cy="17.0779" r="16.5" fill="white" stroke="#EDEDED"/>
<g clip-path="url(#clip0)">
<path d="M21.313 12.3731L21.3129 12.3731C18.8543 9.91679 14.8815 9.88115 12.3793 12.2932C9.8769 14.705 9.76645 18.6765 12.1308 21.2237C14.4845 23.7595 18.4279 23.9546 21.0198 21.6717L23.9013 24.5532L23.9015 24.5534C24.0586 24.7091 24.312 24.7085 24.4683 24.5521C24.6247 24.3958 24.6253 24.1424 24.4696 23.9853L24.4694 23.9851L21.5879 21.1037C23.7969 18.6006 23.7055 14.7655 21.313 12.3731ZM12.8574 20.8287L12.8572 20.8285C10.6691 18.6606 10.6526 15.1294 12.8204 12.941C14.9884 10.7529 18.5197 10.7364 20.7079 12.9042L20.7449 12.9412C22.9194 15.1157 22.9194 18.654 20.7449 20.8287C18.5702 23.0033 15.0318 23.0032 12.8574 20.8287Z" fill="#7E7E7E" stroke="#7E7E7E" stroke-width="0.1"/>
<path d="M18.9105 16.4825H17.2015V14.775C17.2015 14.5532 17.0217 14.3733 16.7998 14.3733C16.5781 14.3733 16.3981 14.5532 16.3981 14.775V16.4825H14.6905C14.4689 16.4825 14.2889 16.6625 14.2889 16.8842C14.2889 17.1061 14.4689 17.2858 14.6905 17.2858H16.3981V18.995C16.3981 19.2168 16.5781 19.3966 16.7998 19.3966C17.0217 19.3966 17.2015 19.2168 17.2015 18.995V17.2858H18.9105C19.1324 17.2858 19.3122 17.1061 19.3122 16.8842C19.3122 16.6625 19.1324 16.4825 18.9105 16.4825Z" fill="#7E7E7E" stroke="#7E7E7E" stroke-width="0.1"/>
</g>
<defs>
<clipPath id="clip0">
<rect width="15" height="15" fill="white" transform="translate(10 10.0779)"/>
</clipPath>
</defs>
</svg>
