<svg width="34" height="34" viewBox="0 0 34 34" fill="none" xmlns="http://www.w3.org/2000/svg">
<circle cx="17" cy="17" r="16.5" fill="white" stroke="#6A3DF7"/>
<path d="M20.2812 12C19.5216 12 18.8251 12.2337 18.2111 12.6947C17.6226 13.1367 17.2307 13.6996 17 14.1089C16.7693 13.6996 16.3774 13.1367 15.7889 12.6947C15.1749 12.2337 14.4784 12 13.7188 12C11.5987 12 10 13.6836 10 15.9163C10 18.3284 11.9945 19.9786 15.014 22.477C15.5267 22.9012 16.1079 23.3821 16.712 23.895C16.7916 23.9627 16.8939 24 17 24C17.1061 24 17.2084 23.9627 17.288 23.8951C17.8921 23.3821 18.4733 22.9012 18.9863 22.4767C22.0055 19.9786 24 18.3284 24 15.9163C24 13.6836 22.4013 12 20.2812 12Z" fill="#6A3DF7"/>
</svg>
