<svg width="26" height="26" viewBox="0 0 26 26" fill="none" xmlns="http://www.w3.org/2000/svg">
<path d="M20.612 6.41452C20.1722 5.96607 19.65 5.61034 19.0752 5.36763C18.5005 5.12492 17.8844 5 17.2623 5C16.6401 5 16.0241 5.12492 15.4493 5.36763C14.8746 5.61034 14.3524 5.96607 13.9126 6.41452L12.9998 7.34476L12.087 6.41452C11.1986 5.50912 9.99364 5.00047 8.73725 5.00047C7.48085 5.00047 6.27591 5.50912 5.38751 6.41452C4.4991 7.31992 4 8.5479 4 9.82833C4 11.1088 4.4991 12.3367 5.38751 13.2421L6.30029 14.1724L12.9998 21L19.6992 14.1724L20.612 13.2421C21.0521 12.7939 21.4011 12.2617 21.6393 11.676C21.8774 11.0902 22 10.4624 22 9.82833C22 9.19428 21.8774 8.56645 21.6393 7.9807C21.4011 7.39494 21.0521 6.86275 20.612 6.41452V6.41452Z" stroke="#6A3DF7" stroke-width="2" stroke-linecap="round" stroke-linejoin="round"/>
</svg>
