<svg width="179" height="51" viewBox="0 0 179 51" fill="none" xmlns="http://www.w3.org/2000/svg">
<path d="M46.6396 21.3631L51.25 37.1241L53.6892 14.0723L47.4438 12.4373L46.6396 21.3631Z" fill="#EABD00"/>
<path d="M0 0L1.50105 8.04132C2.70725 8.28256 3.94024 8.5238 5.14644 8.79185L4.31551 4.31551L12.3032 6.35265L11.3383 2.89488L0 0Z" fill="#4D31A5"/>
<path d="M36.374 9.46191H36.3472L35.3555 20.3177L40.2607 37.1241L41.4401 27.7425L36.374 9.46191Z" fill="#BA258D"/>
<path d="M24.4726 6.35278L23.1592 20.2643L28.0644 37.1242L29.5922 24.821L24.4726 6.35278Z" fill="#4D31A5"/>
<path d="M23.1591 20.2643L18.6559 4.82493L11.3115 2.89502L12.2765 6.4064L20.7735 37.1242H28.0643L23.1591 20.2643Z" fill="#6A3DF7"/>
<path d="M31.8439 8.2827L24.4727 6.35278L29.5923 24.821L32.9965 37.1242H40.2604L35.3552 20.3179L31.8439 8.2827Z" fill="#E42F93"/>
<path d="M43.772 11.3918L42.9143 11.1774L37.2318 9.67635L36.374 9.46191L41.44 27.7425L44.0132 37.1241H51.2504L46.64 21.2827L43.772 11.3918Z" fill="#F9D422"/>
<path d="M32.5944 46.2376C32.5944 44.0664 30.8253 42.2974 28.6541 42.2974C26.483 42.2974 24.7139 44.0664 24.7139 46.2376C24.7139 47.8459 25.652 49.2129 27.019 49.8294C27.5283 50.0438 28.0644 50.1779 28.6541 50.1779C29.2438 50.1779 29.7799 50.0438 30.2892 49.8294C31.6294 49.2129 32.5944 47.8459 32.5944 46.2376Z" fill="#6A3DF7"/>
<path d="M47.524 46.2376C47.524 44.0664 45.755 42.2974 43.5838 42.2974C41.4126 42.2974 39.6436 44.0664 39.6436 46.2376C39.6436 47.8459 40.5817 49.2129 41.9487 49.8294C42.458 50.0438 42.9941 50.1779 43.5838 50.1779C44.1735 50.1779 44.7096 50.0438 45.2189 49.8294C46.5859 49.2129 47.524 47.8459 47.524 46.2376Z" fill="#E42F93"/>
<path d="M81.673 25.8931C82.8524 25.8931 84.0586 26.1343 85.0772 26.59V29.3508C84.2462 28.7879 83.1473 28.4663 82.0483 28.4663C80.2792 28.4663 78.5905 29.3776 78.5905 31.656C78.5905 34.3901 80.6008 34.8993 81.8607 34.8993C82.1823 34.8993 82.4235 34.8725 82.6112 34.8189V31.0931H85.372V36.6416C84.2462 37.1241 82.9596 37.3922 81.7266 37.3922C78.5905 37.3922 75.6152 35.6499 75.6152 31.656C75.6152 27.5281 78.6173 25.8931 81.673 25.8931Z" fill="white"/>
<path d="M99.3634 26.1077V37.1243H96.4418V31.2809L94.083 34.8995H92.4211L90.0623 31.2541V37.1243H87.1406V26.1077H89.9015L93.252 31.2809L96.6026 26.1077H99.3634Z" fill="white"/>
<path d="M100.409 37.1509L104.751 26.1343H107.888L112.23 37.1509H109.228L108.611 35.4086H104.055L103.438 37.1509H100.409ZM104.886 33.0498H107.727L106.601 29.8601C106.494 29.5921 106.413 29.324 106.306 28.7343C106.199 29.324 106.119 29.5921 106.011 29.8601L104.886 33.0498Z" fill="white"/>
<path d="M113.275 37.1509V26.1343H117.913C120.137 26.1343 122.442 26.9384 122.442 29.8601C122.442 31.6828 121.558 32.6746 120.325 33.157L123.354 37.1509H120.057L117.43 33.5591H116.17V37.1509H113.275ZM116.197 31.2003H118.047C118.878 31.2003 119.44 30.7714 119.44 29.9137C119.44 29.056 118.878 28.6271 118.047 28.6271H116.197V31.2003Z" fill="white"/>
<path d="M124.453 37.1509V26.1343H127.375V30.3158H128.769L131.261 26.1343H134.478L131.02 31.4952L134.639 37.1509H131.422L128.742 32.889H127.375V37.1509H124.453Z" fill="white"/>
<path d="M143.511 26.1077V28.6273H138.499V30.316H143.056V32.8088H138.499V34.6047H143.618V37.1243H135.577V26.1077H143.511Z" fill="white"/>
<path d="M153.59 26.1077V28.7077H150.48V37.1243H147.559V28.7077H144.449V26.1077H153.59Z" fill="white"/>
<path d="M154.983 37.3654C154.126 37.3654 153.375 36.8829 153.375 35.8108C153.375 34.7386 154.126 34.2561 154.983 34.2561C155.841 34.2561 156.592 34.7386 156.592 35.8108C156.565 36.9097 155.841 37.3654 154.983 37.3654Z" fill="white"/>
<path d="M158.173 37.1509V26.1343H162.81C165.035 26.1343 167.34 26.9384 167.34 29.8601C167.34 31.6828 166.455 32.6746 165.222 33.157L168.251 37.1509H164.954L162.328 33.5591H161.068V37.1509H158.173ZM161.068 31.2003H162.917C163.748 31.2003 164.311 30.7714 164.311 29.9137C164.311 29.056 163.748 28.6271 162.917 28.6271H161.068V31.2003Z" fill="white"/>
<path d="M179 26.1077V32.916C179 36.2397 176.48 37.3655 174.041 37.3655C171.602 37.3655 169.082 36.2397 169.082 32.916V26.1077H172.004V32.7552C172.004 34.2294 172.808 34.7655 174.041 34.7655C175.274 34.7655 176.078 34.2562 176.078 32.7552V26.1077H179Z" fill="white"/>
<path d="M72.4528 22.9179L67.8157 21.7117L60.2568 31.0396V34.551H68.3518V37.1242H72.4528V34.551H74.5704V31.0396H72.4528V22.9179ZM68.3518 31.0396H64.5723L68.3518 26.3756V31.0396Z" fill="white"/>
</svg>
