<svg width="30" height="30" viewBox="0 0 30 30" fill="none" xmlns="http://www.w3.org/2000/svg">
<path d="M0 15C0 23.2843 6.71573 30 15 30C23.2843 30 30 23.2843 30 15C30 6.71573 23.2843 0 15 0C6.71573 0 0 6.71573 0 15Z" fill="white"/>
<path d="M24.4874 10.6576L24.4815 10.6339C24.0022 8.69655 21.8418 6.61769 19.8577 6.1852L19.8353 6.18059C16.6262 5.56838 13.3723 5.56838 10.1638 6.18059L10.1408 6.1852C8.15736 6.61769 5.99688 8.69655 5.51699 10.6339L5.51172 10.6576C4.91927 13.3631 4.91927 16.1068 5.51172 18.8124L5.51699 18.8361C5.97641 20.6907 7.97601 22.6741 9.88602 23.2195V25.3821C9.88602 26.1648 10.8399 26.5492 11.3823 25.9844L13.5734 23.7069C14.0486 23.7334 14.5241 23.7483 14.9996 23.7483C16.615 23.7483 18.2311 23.5955 19.8353 23.2894L19.8577 23.2848C21.8418 22.8523 24.0022 20.7735 24.4815 18.8361L24.4874 18.8124C25.0798 16.1068 25.0798 13.3631 24.4874 10.6576ZM22.7535 18.42C22.4335 19.6839 20.7931 21.2553 19.4897 21.5456C17.7834 21.87 16.0635 22.0087 14.3454 21.9611C14.3113 21.9602 14.2784 21.9735 14.2546 21.9979C14.0107 22.2482 12.6548 23.6402 12.6548 23.6402L10.9531 25.3867C10.8287 25.5163 10.6101 25.4281 10.6101 25.2491V21.6666C10.6101 21.6074 10.5679 21.5571 10.5097 21.5457C10.5094 21.5456 10.5091 21.5456 10.5088 21.5455C9.20535 21.2552 7.56557 19.6839 7.24498 18.42C6.71177 15.9745 6.71177 13.4954 7.24498 11.0498C7.56557 9.78594 9.20535 8.21462 10.5088 7.92431C13.4888 7.35753 16.5103 7.35753 19.4897 7.92431C20.7938 8.21462 22.4335 9.78594 22.7535 11.0498C23.2873 13.4954 23.2873 15.9745 22.7535 18.42Z" fill="#6A3DF7"/>
<path d="M17.8345 20.0737C17.6341 20.0129 17.4432 19.972 17.2658 19.8984C15.4282 19.136 13.7369 18.1524 12.3972 16.6446C11.6354 15.7872 11.0391 14.8192 10.5351 13.7947C10.296 13.3089 10.0946 12.8041 9.88929 12.3025C9.70208 11.8452 9.97783 11.3726 10.2682 11.028C10.5407 10.7046 10.8913 10.4571 11.271 10.2747C11.5673 10.1323 11.8597 10.2144 12.0761 10.4656C12.544 11.0087 12.9738 11.5795 13.3218 12.2091C13.5359 12.5963 13.4771 13.0696 13.0893 13.3331C12.995 13.3971 12.9091 13.4723 12.8213 13.5447C12.7443 13.608 12.6718 13.6721 12.619 13.7579C12.5225 13.915 12.5179 14.1002 12.58 14.271C13.0583 15.5855 13.8645 16.6076 15.1876 17.1581C15.3993 17.2462 15.6119 17.3487 15.8558 17.3203C16.2642 17.2726 16.3965 16.8245 16.6827 16.5905C16.9625 16.3617 17.32 16.3587 17.6214 16.5494C17.9228 16.7402 18.215 16.9449 18.5054 17.1519C18.7905 17.3551 19.0744 17.5538 19.3374 17.7854C19.5902 18.0081 19.6773 18.3002 19.5349 18.6024C19.2742 19.1559 18.8949 19.6164 18.3478 19.9103C18.1933 19.9932 18.0088 20.02 17.8345 20.0737C17.6341 20.0128 18.0088 20.02 17.8345 20.0737Z" fill="#6A3DF7"/>
<path d="M15.0047 9.64187C17.4084 9.70921 19.3826 11.3044 19.8057 13.6808C19.8778 14.0857 19.9035 14.4997 19.9355 14.9107C19.949 15.0836 19.8511 15.2478 19.6646 15.25C19.4719 15.2523 19.3852 15.0911 19.3727 14.9183C19.3479 14.5763 19.3308 14.2327 19.2836 13.8935C19.0348 12.1029 17.607 10.6215 15.8247 10.3036C15.5565 10.2558 15.282 10.2432 15.0103 10.2147C14.8386 10.1967 14.6136 10.1863 14.5756 9.97279C14.5437 9.7938 14.6947 9.65128 14.8652 9.64213C14.9115 9.63957 14.9581 9.64167 15.0047 9.64187C17.4084 9.70921 14.9581 9.64167 15.0047 9.64187Z" fill="#6A3DF7"/>
<path d="M18.6575 14.3773C18.6535 14.4073 18.6514 14.4779 18.6339 14.5444C18.5701 14.7857 18.2042 14.8159 18.1199 14.5723C18.095 14.5001 18.0912 14.4178 18.0911 14.34C18.0903 13.8309 17.9796 13.3223 17.7229 12.8794C17.459 12.4241 17.0558 12.0414 16.5829 11.8098C16.2969 11.6698 15.9876 11.5827 15.6742 11.5309C15.5372 11.5082 15.3988 11.4945 15.2612 11.4753C15.0943 11.4521 15.0053 11.3458 15.0132 11.1815C15.0206 11.0274 15.1331 10.9166 15.301 10.9261C15.8526 10.9574 16.3854 11.0767 16.8759 11.3363C17.8732 11.8645 18.4428 12.6981 18.6091 13.8113C18.6166 13.8617 18.6287 13.9117 18.6326 13.9623C18.642 14.0873 18.6479 14.2124 18.6575 14.3773C18.6535 14.4073 18.6479 14.2124 18.6575 14.3773Z" fill="#6A3DF7"/>
<path d="M17.1625 14.3191C16.9614 14.3228 16.8538 14.2115 16.833 14.0271C16.8186 13.8985 16.8072 13.7682 16.7765 13.6432C16.7161 13.3968 16.5852 13.1685 16.3779 13.0176C16.2801 12.9463 16.1693 12.8944 16.0532 12.8609C15.9056 12.8183 15.7524 12.83 15.6053 12.7939C15.4454 12.7547 15.357 12.6253 15.3822 12.4754C15.405 12.3389 15.5378 12.2324 15.6869 12.2432C16.6188 12.3105 17.2849 12.7923 17.3799 13.8894C17.3866 13.9668 17.3945 14.0486 17.3774 14.1226C17.3479 14.2494 17.2541 14.313 17.1625 14.3191C16.9614 14.3228 17.2541 14.313 17.1625 14.3191Z" fill="#6A3DF7"/>
</svg>
