<svg width="30" height="30" viewBox="0 0 30 30" fill="none" xmlns="http://www.w3.org/2000/svg">
<path d="M0 15C0 23.2843 6.71573 30 15 30C23.2843 30 30 23.2843 30 15C30 6.71573 23.2843 0 15 0C6.71573 0 0 6.71573 0 15Z" fill="white"/>
<path d="M8.72464 24.4174C6.85396 24.899 5.1651 23.1717 5.68862 21.3123V21.3123C5.87366 20.6551 5.76852 19.957 5.48416 19.3363C4.86072 17.9755 4.53578 16.4916 4.53578 14.9753C4.53578 9.19783 9.23608 4.49756 15.0135 4.49756C20.791 4.49756 25.4912 9.19783 25.4912 14.9753C25.4912 20.7527 20.791 25.453 15.0135 25.453C13.5641 25.453 12.1389 25.1542 10.8245 24.5811C10.2111 24.3136 9.52941 24.2103 8.88131 24.3771L8.72464 24.4174ZM9.80238 22.3047C10.035 22.2448 10.282 22.2816 10.487 22.4068V22.4068C11.8466 23.2368 13.4119 23.6756 15.0135 23.6756C19.8109 23.6756 23.7138 19.7726 23.7138 14.9753C23.7138 10.1779 19.8109 6.27492 15.0135 6.27492C10.2161 6.27492 6.31315 10.1779 6.31315 14.9753C6.31315 16.6468 6.78824 18.2701 7.68693 19.6695V19.6695C7.82429 19.8834 7.86348 20.1459 7.79459 20.3906L7.72892 20.6239C7.43063 21.6833 8.39292 22.6675 9.4588 22.3931L9.80238 22.3047Z" fill="#1BD741"/>
<path d="M12.0699 10.0986L11.39 10.0615C11.1765 10.0499 10.967 10.1212 10.8056 10.2615C10.476 10.5477 9.94899 11.101 9.78711 11.8221C9.54572 12.8973 9.91877 14.2139 10.8843 15.5304C11.8498 16.847 13.6491 18.9535 16.8307 19.8532C17.856 20.1431 18.6625 19.9476 19.2848 19.5496C19.7777 19.2343 20.1174 18.7283 20.2399 18.1562L20.3484 17.6492C20.3829 17.4881 20.3011 17.3246 20.1514 17.2556L17.8536 16.1965C17.7045 16.1277 17.5276 16.1712 17.4273 16.3012L16.5252 17.4706C16.4571 17.5589 16.3405 17.5939 16.2351 17.5569C15.6174 17.3398 13.5481 16.4732 12.4127 14.2861C12.3635 14.1913 12.3757 14.0761 12.4456 13.9952L13.3077 12.9979C13.3958 12.8961 13.418 12.7529 13.3651 12.6292L12.3746 10.3119C12.3219 10.1886 12.2037 10.1059 12.0699 10.0986Z" fill="#1BD741"/>
</svg>
