<svg width="22" height="22" viewBox="0 0 22 22" fill="none" xmlns="http://www.w3.org/2000/svg">
<path d="M4.18744 14.0998C3.10416 12.6326 2.53163 10.8927 2.53163 9.06808C2.53163 8.46988 2.59441 7.88628 2.71291 7.32281C1.10594 8.12831 0 9.79117 0 11.7078C0 13.8378 1.37215 15.7111 3.37238 16.3659L4.32071 18.3384C4.42796 18.5617 4.65388 18.7037 4.90163 18.7037C5.14937 18.7037 5.37512 18.5617 5.48254 18.3384L6.43071 16.3659C6.48727 16.3474 6.54317 16.3276 6.59872 16.3071C5.6665 15.7417 4.8501 14.9974 4.18744 14.0998Z" fill="#6A3DF7"/>
<path d="M18.1754 9.06808C18.1754 5.11043 14.9556 1.89062 10.9978 1.89062C7.04012 1.89062 3.82031 5.11043 3.82031 9.06808C3.82031 12.2268 5.88046 15 8.86998 15.9248L10.3987 19.7804C10.4961 20.026 10.7336 20.1874 10.9978 20.1874C11.2621 20.1874 11.4996 20.0261 11.597 19.7804L13.1256 15.9248C16.1152 15 18.1754 12.2268 18.1754 9.06808ZM10.9978 11.6462C9.57628 11.6462 8.41965 10.4897 8.41965 9.06808C8.41965 7.64659 9.57628 6.48996 10.9978 6.48996C12.4194 6.48996 13.5759 7.64659 13.5759 9.06808C13.5759 10.4897 12.4194 11.6462 10.9978 11.6462Z" fill="#6A3DF7"/>
<path d="M10.998 7.77905C10.2872 7.77905 9.70898 8.35745 9.70898 9.06812C9.70898 9.77895 10.2872 10.3572 10.998 10.3572C11.7089 10.3572 12.2871 9.77895 12.2871 9.06812C12.2871 8.35745 11.7089 7.77905 10.998 7.77905Z" fill="#6A3DF7"/>
<path d="M19.2826 7.32098C19.4014 7.88495 19.4644 8.46939 19.4644 9.0681C19.4644 10.8928 18.8918 12.6327 17.8085 14.0998C17.1461 14.9971 16.3302 15.7412 15.3984 16.3065C15.4547 16.3273 15.5114 16.3473 15.5688 16.3661L16.517 18.3384C16.6242 18.5618 16.8501 18.7038 17.0979 18.7038C17.3456 18.7038 17.5714 18.5618 17.6788 18.3384L18.627 16.3661C20.6274 15.7111 21.9995 13.8378 21.9995 11.7078C21.9995 9.78967 20.8919 8.12547 19.2826 7.32098Z" fill="#6A3DF7"/>
</svg>
