<svg width="15" height="14" viewBox="0 0 15 14" fill="none" xmlns="http://www.w3.org/2000/svg">
<path d="M14.041 6.61114C14.0437 7.6377 13.8039 8.65038 13.341 9.56669C12.7922 10.6647 11.9486 11.5883 10.9046 12.2339C9.86058 12.8796 8.65743 13.2218 7.42991 13.2223C6.40334 13.2249 5.39066 12.9851 4.47435 12.5223L0.0410156 14L1.51879 9.56669C1.05596 8.65038 0.816117 7.6377 0.818794 6.61114C0.819269 5.38361 1.16149 4.18046 1.80713 3.13645C2.45277 2.09244 3.37633 1.2488 4.47435 0.700023C5.39066 0.237191 6.40334 -0.00265437 7.42991 2.21574e-05H7.8188C9.43996 0.0894602 10.9712 0.773726 12.1192 1.9218C13.2673 3.06988 13.9516 4.60109 14.041 6.22225V6.61114Z" fill="#D9D9D9"/>
</svg>
