<svg width="22" height="22" viewBox="0 0 22 22" fill="none" xmlns="http://www.w3.org/2000/svg">
<path d="M18.1493 14.2423C17.1182 14.2423 16.2793 15.0854 16.2793 16.1213C16.2793 17.1574 17.1182 18.0003 18.1493 18.0003C19.1802 18.0003 20.0193 17.1574 20.0193 16.1213C20.0193 15.0854 19.1802 14.2423 18.1493 14.2423ZM18.1493 16.6739C17.8459 16.6739 17.5993 16.4261 17.5993 16.1213C17.5993 15.8165 17.8459 15.5687 18.1493 15.5687C18.4527 15.5687 18.6993 15.8165 18.6993 16.1213C18.6993 16.4261 18.4527 16.6739 18.1493 16.6739Z" fill="#6A3DF7"/>
<path d="M17.9707 6.43158H14.7398C14.4967 6.43158 14.2998 6.62966 14.2998 6.87369V15.4949C14.2998 15.739 14.4967 15.937 14.7398 15.937H15.2064C15.4242 15.937 15.6172 15.7794 15.6453 15.5624C15.818 14.2329 16.8734 13.4084 18.15 13.4084C19.4267 13.4084 20.482 14.2329 20.6547 15.5624C20.6829 15.7794 20.8756 15.937 21.0936 15.937H21.5598C21.8026 15.937 21.9998 15.739 21.9998 15.4949V11.1843C21.9998 11.0804 21.9635 10.98 21.8972 10.9007L18.3082 6.59008C18.2246 6.48973 18.101 6.43158 17.9707 6.43158ZM15.1798 9.96849V7.75792C15.1798 7.51389 15.3767 7.31581 15.6198 7.31581H17.558C17.6885 7.31581 17.8123 7.37418 17.8959 7.47495L19.7292 9.68553C19.9679 9.97355 19.7641 10.4106 19.391 10.4106H15.6198C15.3767 10.4106 15.1798 10.2128 15.1798 9.96849Z" fill="#6A3DF7"/>
<path d="M0.44 15.9371H1.56664C1.78444 15.9371 1.97738 15.7795 2.00552 15.5624C2.17822 14.233 3.23357 13.4084 4.51022 13.4084C5.78686 13.4084 6.84222 14.233 7.01491 15.5624C7.04306 15.7795 7.23577 15.9371 7.45379 15.9371H12.98C13.2229 15.9371 13.42 15.739 13.42 15.495V4.44211C13.42 4.19808 13.2229 4 12.98 4H0.44C0.196886 4 0 4.19808 0 4.44211V15.495C0 15.739 0.196886 15.9371 0.44 15.9371Z" fill="#6A3DF7"/>
<path d="M4.50965 14.2423C3.47852 14.2423 2.63965 15.0854 2.63965 16.1213C2.63965 17.1574 3.47852 18.0003 4.50965 18.0003C5.54056 18.0003 6.37965 17.1574 6.37965 16.1213C6.37965 15.0854 5.54056 14.2423 4.50965 14.2423ZM4.50965 16.6739C4.20629 16.6739 3.95965 16.4261 3.95965 16.1213C3.95965 15.8165 4.20629 15.5687 4.50965 15.5687C4.81301 15.5687 5.05965 15.8165 5.05965 16.1213C5.05965 16.4261 4.81301 16.6739 4.50965 16.6739Z" fill="#6A3DF7"/>
</svg>
